<?xml version="1.0" encoding="UTF-8"?>
<svg xmlns="http://www.w3.org/2000/svg" width="256" height="256" viewBox="0 0 64 64" fill="none">
  <defs>
    <linearGradient id="g1" x1="0" y1="0" x2="0" y2="1">
      <stop offset="0%" stop-color="#60a5fa"/>
      <stop offset="100%" stop-color="#2563eb"/>
    </linearGradient>
    <linearGradient id="g2" x1="0" y1="0" x2="1" y2="1">
      <stop offset="0%" stop-color="#fde68a"/>
      <stop offset="100%" stop-color="#f59e0b"/>
    </linearGradient>
  </defs>
  <!-- background circle -->
  <circle cx="32" cy="32" r="30" fill="url(#g1)" opacity="0.12"/>
  <!-- sun -->
  <circle cx="42" cy="22" r="8" fill="url(#g2)"/>
  <!-- sun rays -->
  <g stroke="#f59e0b" stroke-width="2" stroke-linecap="round" opacity="0.9">
    <line x1="42" y1="8" x2="42" y2="4"/>
    <line x1="42" y1="40" x2="42" y2="44"/>
    <line x1="28" y1="22" x2="24" y2="22"/>
    <line x1="56" y1="22" x2="60" y2="22"/>
    <line x1="50" y1="14" x2="53" y2="11"/>
    <line x1="34" y1="30" x2="31" y2="33"/>
    <line x1="50" y1="30" x2="53" y2="33"/>
    <line x1="34" y1="14" x2="31" y2="11"/>
  </g>
  <!-- cloud -->
  <g>
    <path d="M22 44c-4.418 0-8-3.134-8-7s3.582-7 8-7c1.12 0 2.186.206 3.154.584C26.59 27.824 29.085 26 32 26c4.418 0 8 3.134 8 7 3.314 0 6 2.686 6 6s-2.686 5-6 5H22z" fill="#fff"/>
    <path d="M40 39c2.761 0 5 1.79 5 4s-2.239 4-5 4H22c-3.866 0-7-2.239-7-5s3.134-5 7-5" fill="#e5f0ff"/>
    <path d="M22 44c-4.418 0-8-3.134-8-7s3.582-7 8-7c1.12 0 2.186.206 3.154.584C26.59 27.824 29.085 26 32 26c4.418 0 8 3.134 8 7 3.314 0 6 2.686 6 6s-2.686 5-6 5H22z" stroke="#2563eb" stroke-opacity=".25" stroke-width="1.2"/>
  </g>
  <!-- SWP letters -->
  <g font-family="Segoe UI, Roboto, Arial" font-weight="700" font-size="8" fill="#1e3a8a" opacity="0.9">
    <text x="12" y="57">SWP</text>
  </g>
</svg>
